<svg width="15" height="15" viewBox="0 0 15 15" fill="none" xmlns="http://www.w3.org/2000/svg">
<path d="M3.95337 7.989H5.59761V14.7581C5.59761 14.8917 5.7059 15 5.83955 15H8.62742C8.76106 15 8.86935 14.8917 8.86935 14.7581V8.02089H10.7595C10.8824 8.02089 10.9859 7.92866 10.9999 7.80658L11.287 5.31455C11.2949 5.24598 11.2731 5.17732 11.2273 5.12589C11.1813 5.0744 11.1156 5.04494 11.0467 5.04494H8.86945V3.48281C8.86945 3.0119 9.123 2.77311 9.62313 2.77311C9.6944 2.77311 11.0467 2.77311 11.0467 2.77311C11.1803 2.77311 11.2886 2.66477 11.2886 2.53118V0.243726C11.2886 0.110081 11.1803 0.00179032 11.0467 0.00179032H9.08482C9.07098 0.0011129 9.04026 0 8.99497 0C8.65456 0 7.47135 0.0668225 6.53671 0.926661C5.50113 1.8795 5.64508 3.02037 5.67948 3.21818V5.04489H3.95337C3.81972 5.04489 3.71143 5.15318 3.71143 5.28682V7.74702C3.71143 7.88066 3.81972 7.989 3.95337 7.989Z" fill="white"/>
</svg>
